<?xml version='1.0' encoding='utf-8'?>
<!DOCTYPE svg PUBLIC '-//W3C//DTD SVG 1.1//EN' 'http://www.w3.org/Graphics/SVG/1.1/DTD/svg11.dtd'>
<svg version="1.1" xmlns="http://www.w3.org/2000/svg" viewBox="0 0 512 512" xmlns:xlink="http://www.w3.org/1999/xlink" enable-background="new 0 0 512 512">
  <g>
    <g>
      <g>
        <g>
          <path d="m327,433.5h-141.9c-11.3,0-20.4-9.1-20.4-20.4v-11c0-42-14.1-82.2-39.7-113.3-30-36.3-43.2-82.3-37.4-129.5 9.5-76.7 72.1-138.5 149-147.1 6.5-0.7 13-1.1 19.5-1.1 93.6,0 169.8,76.2 169.8,169.8 0,38.4-12.5,74.5-36.1,104.7-27.7,35.4-42.4,75.7-42.4,116.6v11c-5.68434e-14,11.1-9.2,20.3-20.4,20.3zm-121.7-40.9h101.4c2.1-46.8 19.5-92.4 50.9-132.4 17.9-22.9 27.4-50.3 27.4-79.5 0-71.1-57.9-129-129-129-4.9,0-10,0.3-15,0.8-58.3,6.5-105.8,53.4-113,111.6-4.4,35.9 5.6,70.9 28.4,98.5 29.8,36.2 46.9,82 48.9,130z"/>
        </g>
        <g>
          <path d="m313.6,501h-115.2c-11.3,0-20.4-9.1-20.4-20.4 0-11.3 9.1-20.4 20.4-20.4h115.2c11.3,0 20.4,9.1 20.4,20.4 0.1,11.3-9.1,20.4-20.4,20.4z"/>
        </g>
      </g>
    </g>
  </g>
</svg>
